<svg width="49" height="48" viewBox="0 0 49 48" fill="none" xmlns="http://www.w3.org/2000/svg">
<path d="M16.5 32C16.5 33.5913 15.8679 35.1174 14.7426 36.2426C13.6174 37.3679 12.0913 38 10.5 38M32.5 32C32.5 33.5913 33.1321 35.1174 34.2574 36.2426C35.3826 37.3679 36.9087 38 38.5 38M24.5 32V40M6.5 14C6.5 12.9391 6.92143 11.9217 7.67157 11.1716C8.42172 10.4214 9.43913 10 10.5 10H38.5C39.5609 10 40.5783 10.4214 41.3284 11.1716C42.0786 11.9217 42.5 12.9391 42.5 14V22C42.5 23.0609 42.0786 24.0783 41.3284 24.8284C40.5783 25.5786 39.5609 26 38.5 26H10.5C9.43913 26 8.42172 25.5786 7.67157 24.8284C6.92143 24.0783 6.5 23.0609 6.5 22V14Z" stroke="#091409" stroke-width="2.5" stroke-linecap="round" stroke-linejoin="round"/>
<path d="M14.5 26V20C14.5 19.4696 14.7107 18.9609 15.0858 18.5858C15.4609 18.2107 15.9696 18 16.5 18H32.5C33.0304 18 33.5391 18.2107 33.9142 18.5858C34.2893 18.9609 34.5 19.4696 34.5 20V26" stroke="#091409" stroke-width="2.5" stroke-linecap="round" stroke-linejoin="round"/>
</svg>
