<svg width="209" height="44" viewBox="0 0 209 44" fill="none" xmlns="http://www.w3.org/2000/svg">
<path d="M23.2407 25.257C23.779 25.257 24.2073 25.118 24.5199 24.8363C24.8363 24.5546 24.9926 24.19 24.9926 23.7346C24.9926 23.2793 24.8363 22.9146 24.5199 22.6348C24.2073 22.3531 23.779 22.2142 23.2407 22.2142H12.3024V33.3396H40.8607C42.8558 30.0286 44.0039 26.1503 44.0039 22.0039C44.0019 9.85003 34.1519 0 22.0019 0C9.85196 0 0 9.85003 0 22C0 34.15 9.85196 44 22.0019 44C28.8458 44 34.9584 40.8762 38.993 35.9733H9.51044V20.1824H23.449C24.5855 20.1824 25.5213 20.5046 26.2603 21.1491C27.0012 21.7916 27.3717 22.6425 27.3717 23.6999C27.3717 24.4466 27.1614 25.091 26.7465 25.6352C26.3317 26.1831 25.8011 26.5902 25.1528 26.8584L26.5729 29.498H32.3806V16.474L32.3536 16.4508L31.5818 15.7253L22.3396 6.97316L22.3068 7.00403L13.0703 15.6925H13.9791L13.9425 15.7253H27.9563L31.2345 18.5173H5.98913L22.3396 3.1412L35.1707 15.2063V31.5259H25.5387C25.2377 31.5259 24.9946 31.3812 24.8093 31.0879L23.0419 27.6187C22.8683 27.3273 22.6271 27.1807 22.3145 27.1807H20.2557V31.5239H17.9056V25.2531H23.2387L23.2407 25.257Z" fill="#4DAF50"/>
<path d="M67.2958 30L63.5998 23.472H62.0158V30H58.6558V13.248H64.9438C66.2398 13.248 67.3438 13.48 68.2558 13.944C69.1678 14.392 69.8478 15.008 70.2958 15.792C70.7598 16.56 70.9918 17.424 70.9918 18.384C70.9918 19.488 70.6718 20.488 70.0318 21.384C69.3918 22.264 68.4398 22.872 67.1758 23.208L71.1838 30H67.2958ZM62.0158 20.952H64.8238C65.7358 20.952 66.4158 20.736 66.8638 20.304C67.3118 19.856 67.5358 19.24 67.5358 18.456C67.5358 17.688 67.3118 17.096 66.8638 16.68C66.4158 16.248 65.7358 16.032 64.8238 16.032H62.0158V20.952Z" fill="#091409"/>
<path d="M86.3908 23.064C86.3908 23.544 86.3588 23.976 86.2948 24.36H76.5748C76.6548 25.32 76.9908 26.072 77.5828 26.616C78.1748 27.16 78.9028 27.432 79.7668 27.432C81.0148 27.432 81.9028 26.896 82.4308 25.824H86.0548C85.6708 27.104 84.9348 28.16 83.8468 28.992C82.7588 29.808 81.4228 30.216 79.8388 30.216C78.5588 30.216 77.4068 29.936 76.3828 29.376C75.3748 28.8 74.5828 27.992 74.0068 26.952C73.4468 25.912 73.1668 24.712 73.1668 23.352C73.1668 21.976 73.4468 20.768 74.0068 19.728C74.5668 18.688 75.3508 17.888 76.3588 17.328C77.3668 16.768 78.5268 16.488 79.8388 16.488C81.1028 16.488 82.2308 16.76 83.2228 17.304C84.2308 17.848 85.0068 18.624 85.5508 19.632C86.1108 20.624 86.3908 21.768 86.3908 23.064ZM82.9108 22.104C82.8948 21.24 82.5828 20.552 81.9748 20.04C81.3668 19.512 80.6228 19.248 79.7428 19.248C78.9108 19.248 78.2068 19.504 77.6308 20.016C77.0708 20.512 76.7268 21.208 76.5988 22.104H82.9108Z" fill="#091409"/>
<path d="M87.9793 23.304C87.9793 21.96 88.2433 20.768 88.7713 19.728C89.3153 18.688 90.0433 17.888 90.9553 17.328C91.8833 16.768 92.9153 16.488 94.0513 16.488C95.0433 16.488 95.9073 16.688 96.6433 17.088C97.3953 17.488 97.9953 17.992 98.4433 18.6V16.704H101.827V30H98.4433V28.056C98.0113 28.68 97.4113 29.2 96.6433 29.616C95.8913 30.016 95.0193 30.216 94.0273 30.216C92.9073 30.216 91.8833 29.928 90.9553 29.352C90.0433 28.776 89.3153 27.968 88.7713 26.928C88.2433 25.872 87.9793 24.664 87.9793 23.304ZM98.4433 23.352C98.4433 22.536 98.2833 21.84 97.9633 21.264C97.6433 20.672 97.2113 20.224 96.6673 19.92C96.1233 19.6 95.5393 19.44 94.9153 19.44C94.2913 19.44 93.7153 19.592 93.1873 19.896C92.6593 20.2 92.2273 20.648 91.8913 21.24C91.5713 21.816 91.4113 22.504 91.4113 23.304C91.4113 24.104 91.5713 24.808 91.8913 25.416C92.2273 26.008 92.6593 26.464 93.1873 26.784C93.7313 27.104 94.3073 27.264 94.9153 27.264C95.5393 27.264 96.1233 27.112 96.6673 26.808C97.2113 26.488 97.6433 26.04 97.9633 25.464C98.2833 24.872 98.4433 24.168 98.4433 23.352Z" fill="#091409"/>
<path d="M108.469 12.24V30H105.109V12.24H108.469Z" fill="#091409"/>
<path d="M130.221 16.704L126.333 30H122.709L120.285 20.712L117.861 30H114.213L110.301 16.704H113.709L116.061 26.832L118.605 16.704H122.157L124.653 26.808L127.005 16.704H130.221Z" fill="#091409"/>
<path d="M144.399 23.064C144.399 23.544 144.367 23.976 144.303 24.36H134.583C134.663 25.32 134.999 26.072 135.591 26.616C136.183 27.16 136.911 27.432 137.775 27.432C139.023 27.432 139.911 26.896 140.439 25.824H144.063C143.679 27.104 142.943 28.16 141.855 28.992C140.767 29.808 139.431 30.216 137.847 30.216C136.567 30.216 135.415 29.936 134.391 29.376C133.383 28.8 132.591 27.992 132.015 26.952C131.455 25.912 131.175 24.712 131.175 23.352C131.175 21.976 131.455 20.768 132.015 19.728C132.575 18.688 133.359 17.888 134.367 17.328C135.375 16.768 136.535 16.488 137.847 16.488C139.111 16.488 140.239 16.76 141.231 17.304C142.239 17.848 143.015 18.624 143.559 19.632C144.119 20.624 144.399 21.768 144.399 23.064ZM140.919 22.104C140.903 21.24 140.591 20.552 139.983 20.04C139.375 19.512 138.631 19.248 137.751 19.248C136.919 19.248 136.215 19.504 135.639 20.016C135.079 20.512 134.735 21.208 134.607 22.104H140.919Z" fill="#091409"/>
<path d="M145.987 23.304C145.987 21.96 146.251 20.768 146.779 19.728C147.323 18.688 148.051 17.888 148.963 17.328C149.891 16.768 150.923 16.488 152.059 16.488C153.051 16.488 153.915 16.688 154.651 17.088C155.403 17.488 156.003 17.992 156.451 18.6V16.704H159.835V30H156.451V28.056C156.019 28.68 155.419 29.2 154.651 29.616C153.899 30.016 153.027 30.216 152.035 30.216C150.915 30.216 149.891 29.928 148.963 29.352C148.051 28.776 147.323 27.968 146.779 26.928C146.251 25.872 145.987 24.664 145.987 23.304ZM156.451 23.352C156.451 22.536 156.291 21.84 155.971 21.264C155.651 20.672 155.219 20.224 154.675 19.92C154.131 19.6 153.547 19.44 152.923 19.44C152.299 19.44 151.723 19.592 151.195 19.896C150.667 20.2 150.235 20.648 149.899 21.24C149.579 21.816 149.419 22.504 149.419 23.304C149.419 24.104 149.579 24.808 149.899 25.416C150.235 26.008 150.667 26.464 151.195 26.784C151.739 27.104 152.315 27.264 152.923 27.264C153.547 27.264 154.131 27.112 154.675 26.808C155.219 26.488 155.651 26.04 155.971 25.464C156.291 24.872 156.451 24.168 156.451 23.352Z" fill="#091409"/>
<path d="M166.477 12.24V30H163.117V12.24H166.477Z" fill="#091409"/>
<path d="M173.708 19.464V25.896C173.708 26.344 173.812 26.672 174.02 26.88C174.244 27.072 174.612 27.168 175.124 27.168H176.684V30H174.572C171.74 30 170.324 28.624 170.324 25.872V19.464H168.74V16.704H170.324V13.416H173.708V16.704H176.684V19.464H173.708Z" fill="#091409"/>
<path d="M178.237 23.304C178.237 21.96 178.501 20.768 179.029 19.728C179.573 18.688 180.309 17.888 181.237 17.328C182.165 16.768 183.197 16.488 184.333 16.488C185.197 16.488 186.021 16.68 186.805 17.064C187.589 17.432 188.213 17.928 188.677 18.552V12.24H192.085V30H188.677V28.032C188.261 28.688 187.677 29.216 186.925 29.616C186.173 30.016 185.301 30.216 184.309 30.216C183.189 30.216 182.165 29.928 181.237 29.352C180.309 28.776 179.573 27.968 179.029 26.928C178.501 25.872 178.237 24.664 178.237 23.304ZM188.701 23.352C188.701 22.536 188.541 21.84 188.221 21.264C187.901 20.672 187.469 20.224 186.925 19.92C186.381 19.6 185.797 19.44 185.173 19.44C184.549 19.44 183.973 19.592 183.445 19.896C182.917 20.2 182.485 20.648 182.149 21.24C181.829 21.816 181.669 22.504 181.669 23.304C181.669 24.104 181.829 24.808 182.149 25.416C182.485 26.008 182.917 26.464 183.445 26.784C183.989 27.104 184.565 27.264 185.173 27.264C185.797 27.264 186.381 27.112 186.925 26.808C187.469 26.488 187.901 26.04 188.221 25.464C188.541 24.872 188.701 24.168 188.701 23.352Z" fill="#091409"/>
<path d="M208.087 16.704L199.855 36.288H196.279L199.159 29.664L193.831 16.704H197.599L201.031 25.992L204.511 16.704H208.087Z" fill="#091409"/>
</svg>
