<svg width="16" height="16" viewBox="0 0 16 16" fill="none" xmlns="http://www.w3.org/2000/svg">
<path d="M11.333 2.22651C12.3385 2.80708 13.175 3.6402 13.7596 4.64338C14.3441 5.64656 14.6566 6.78503 14.666 7.94607C14.6753 9.10712 14.3813 10.2505 13.813 11.263C13.2447 12.2755 12.4218 13.122 11.4258 13.7187C10.4298 14.3155 9.29525 14.6417 8.13441 14.6652C6.97356 14.6887 5.82671 14.4086 4.80738 13.8527C3.78805 13.2967 2.93159 12.4842 2.32279 11.4955C1.71398 10.5069 1.37395 9.37632 1.33634 8.21585L1.33301 7.99985L1.33634 7.78385C1.37368 6.63251 1.70871 5.51049 2.30877 4.52718C2.90883 3.54386 3.75344 2.73282 4.76027 2.1731C5.76709 1.61339 6.90177 1.32411 8.05368 1.33347C9.20559 1.34283 10.3354 1.65051 11.333 2.22651ZM10.471 6.19518C10.3562 6.0804 10.2035 6.01144 10.0415 6.00126C9.87945 5.99107 9.71928 6.04035 9.59101 6.13985L9.52834 6.19518L7.33301 8.38985L6.47101 7.52851L6.40834 7.47318C6.28006 7.37375 6.11992 7.32453 5.95794 7.33475C5.79597 7.34497 5.64328 7.41393 5.52852 7.52869C5.41375 7.64345 5.3448 7.79614 5.33458 7.95812C5.32436 8.12009 5.37358 8.28024 5.47301 8.40851L5.52834 8.47118L6.86167 9.80451L6.92434 9.85985C7.04126 9.95056 7.18503 9.99979 7.33301 9.99979C7.48099 9.99979 7.62476 9.95056 7.74167 9.85985L7.80434 9.80451L10.471 7.13785L10.5263 7.07518C10.6258 6.94691 10.6751 6.78674 10.6649 6.62473C10.6547 6.46271 10.5858 6.30998 10.471 6.19518Z" fill="#41A300"/>
</svg>
