v<svg width="32" height="32" viewBox="0 0 32 32" fill="none" xmlns="http://www.w3.org/2000/svg">
<path opacity="0.4" d="M14.5293 2.87403L6.71403 5.60652C5.22202 6.1371 4 7.7819 4 9.28079V20.025C4 21.0995 4.75311 22.5188 5.67673 23.1555L13.492 28.6072C14.8703 29.5755 17.1297 29.5755 18.508 28.6072L26.3233 23.1555C27.2469 22.5055 28 21.0995 28 20.025V9.28079C28 7.79517 26.778 6.1371 25.286 5.61979L17.4707 2.8873C16.675 2.59548 15.3393 2.59548 14.5293 2.87403Z" fill="#4DAF50"/>
<path d="M18.6668 14.8283C18.6668 13.2671 17.4722 12 16.0002 12C14.5282 12 13.3335 13.2671 13.3335 14.8283C13.3335 16.0954 14.1228 17.1475 15.2002 17.5095V20.4848C15.2002 20.9487 15.5628 21.3333 16.0002 21.3333C16.4375 21.3333 16.8002 20.9487 16.8002 20.4848V17.5095C17.8775 17.1475 18.6668 16.0954 18.6668 14.8283Z" fill="#4DAF50"/>
</svg>
