<svg width="17" height="16" viewBox="0 0 17 16" fill="none" xmlns="http://www.w3.org/2000/svg">
<path d="M4.66699 8V3.33333C4.66699 2.97971 4.80747 2.64057 5.05752 2.39052C5.30756 2.14048 5.6467 2 6.00033 2H8.00033V3.5M3.33366 14L4.00033 13M14.0003 14L13.3337 13M3.33366 8H14.0003C14.1771 8 14.3467 8.07024 14.4717 8.19526C14.5968 8.32029 14.667 8.48986 14.667 8.66667V10.6667C14.667 11.3739 14.386 12.0522 13.8859 12.5523C13.3858 13.0524 12.7076 13.3333 12.0003 13.3333H5.33366C4.62641 13.3333 3.94814 13.0524 3.44804 12.5523C2.94794 12.0522 2.66699 11.3739 2.66699 10.6667V8.66667C2.66699 8.48986 2.73723 8.32029 2.86225 8.19526C2.98728 8.07024 3.15685 8 3.33366 8Z" stroke="#091409" stroke-linecap="round" stroke-linejoin="round"/>
</svg>
