<svg width="16" height="16" viewBox="0 0 16 16" fill="none" xmlns="http://www.w3.org/2000/svg">
<path d="M2 4.66663V12M2 9.33329H14M14 12V6.66663C14 6.313 13.8595 5.97387 13.6095 5.72382C13.3594 5.47377 13.0203 5.33329 12.6667 5.33329H7.33333V9.33329M4 6.66663C4 6.84344 4.07024 7.01301 4.19526 7.13803C4.32029 7.26305 4.48986 7.33329 4.66667 7.33329C4.84348 7.33329 5.01305 7.26305 5.13807 7.13803C5.2631 7.01301 5.33333 6.84344 5.33333 6.66663C5.33333 6.48982 5.2631 6.32025 5.13807 6.19522C5.01305 6.0702 4.84348 5.99996 4.66667 5.99996C4.48986 5.99996 4.32029 6.0702 4.19526 6.19522C4.07024 6.32025 4 6.48982 4 6.66663Z" stroke="#091409" stroke-linecap="round" stroke-linejoin="round"/>
</svg>
