<svg width="25" height="24" viewBox="0 0 25 24" fill="none" xmlns="http://www.w3.org/2000/svg">
<path d="M21.25 21L15.25 15M3.25 10C3.25 10.9193 3.43106 11.8295 3.78284 12.6788C4.13463 13.5281 4.65024 14.2997 5.30025 14.9497C5.95026 15.5998 6.72194 16.1154 7.57122 16.4672C8.4205 16.8189 9.33075 17 10.25 17C11.1693 17 12.0795 16.8189 12.9288 16.4672C13.7781 16.1154 14.5497 15.5998 15.1997 14.9497C15.8498 14.2997 16.3654 13.5281 16.7172 12.6788C17.0689 11.8295 17.25 10.9193 17.25 10C17.25 9.08075 17.0689 8.1705 16.7172 7.32122C16.3654 6.47194 15.8498 5.70026 15.1997 5.05025C14.5497 4.40024 13.7781 3.88463 12.9288 3.53284C12.0795 3.18106 11.1693 3 10.25 3C9.33075 3 8.4205 3.18106 7.57122 3.53284C6.72194 3.88463 5.95026 4.40024 5.30025 5.05025C4.65024 5.70026 4.13463 6.47194 3.78284 7.32122C3.43106 8.1705 3.25 9.08075 3.25 10Z" stroke="#626962" stroke-width="1.5" stroke-linecap="round" stroke-linejoin="round"/>
</svg>
