<svg width="23" height="20" viewBox="0 0 23 20" fill="none" xmlns="http://www.w3.org/2000/svg">
<path d="M1.5 14H6.5L2.5 18M21.5 14H16.5L20.5 18M8.5 9V9.01M14.5 9V9.01M19.5 1V11C19.5 13.1217 18.6571 15.1566 17.1569 16.6569C15.6566 18.1571 13.6217 19 11.5 19C9.37827 19 7.34344 18.1571 5.84315 16.6569C4.34285 15.1566 3.5 13.1217 3.5 11V1L6.932 4.432C8.27175 3.49743 9.8665 2.9975 11.5 3C13.269 3 14.903 3.574 16.228 4.546L19.5 1ZM10.5 14C10.5 14.2652 10.6054 14.5196 10.7929 14.7071C10.9804 14.8946 11.2348 15 11.5 15C11.7652 15 12.0196 14.8946 12.2071 14.7071C12.3946 14.5196 12.5 14.2652 12.5 14C12.5 13.7348 12.3946 13.4804 12.2071 13.2929C12.0196 13.1054 11.7652 13 11.5 13C11.2348 13 10.9804 13.1054 10.7929 13.2929C10.6054 13.4804 10.5 13.7348 10.5 14Z" stroke="#091409" stroke-width="1.5" stroke-linecap="round" stroke-linejoin="round"/>
</svg>
