<svg width="20" height="21" viewBox="0 0 20 21" fill="none" xmlns="http://www.w3.org/2000/svg">
<path d="M17 8L10 1L1 10H3V17C3 17.5304 3.21071 18.0391 3.58579 18.4142C3.96086 18.7893 4.46957 19 5 19H11" stroke="#091409" stroke-width="1.5" stroke-linecap="round" stroke-linejoin="round"/>
<path d="M7 19V13C7 12.4696 7.21071 11.9609 7.58579 11.5858C7.96086 11.2107 8.46957 11 9 11H11C11.387 11 11.748 11.11 12.054 11.3M19 13H16.5C16.1022 13 15.7206 13.158 15.4393 13.4393C15.158 13.7206 15 14.1022 15 14.5C15 14.8978 15.158 15.2794 15.4393 15.5607C15.7206 15.842 16.1022 16 16.5 16H17.5C17.8978 16 18.2794 16.158 18.5607 16.4393C18.842 16.7206 19 17.1022 19 17.5C19 17.8978 18.842 18.2794 18.5607 18.5607C18.2794 18.842 17.8978 19 17.5 19H15M17 19V20M17 12V13" stroke="#091409" stroke-width="1.5" stroke-linecap="round" stroke-linejoin="round"/>
</svg>
