<svg width="25" height="24" viewBox="0 0 25 24" fill="none" xmlns="http://www.w3.org/2000/svg">
<path d="M8.50041 11.9999H16.0004M16.0004 11.9999L12.5004 8.49994M16.0004 11.9999L12.5004 15.4999M3.82041 12.7739L11.7264 20.6789C12.1534 21.1069 12.8464 21.1069 13.2744 20.6789L21.1794 12.7739C21.3846 12.5686 21.4998 12.2902 21.4998 11.9999C21.4998 11.7097 21.3846 11.4313 21.1794 11.2259L13.2744 3.32092C13.0691 3.11574 12.7907 3.00049 12.5004 3.00049C12.2101 3.00049 11.9317 3.11574 11.7264 3.32092L3.82141 11.2259C3.61623 11.4313 3.50098 11.7097 3.50098 11.9999C3.50098 12.2902 3.61623 12.5686 3.82141 12.7739H3.82041Z" stroke="#4DAF50" stroke-width="1.5" stroke-linecap="round" stroke-linejoin="round"/>
</svg>
