<svg width="16" height="16" viewBox="0 0 16 16" fill="none" xmlns="http://www.w3.org/2000/svg">
<path d="M12.6676 11.3335C13.2865 11.3335 13.88 11.0877 14.3176 10.6501C14.7551 10.2125 15.001 9.61905 15.001 9.00021C15.001 8.38137 14.7551 7.78788 14.3176 7.3503C13.88 6.91271 13.2865 6.66688 12.6676 6.66688H12.001C12.0982 6.23352 12.0997 5.78715 12.0053 5.35328C11.9109 4.9194 11.7225 4.5065 11.4508 4.13816C11.1791 3.76982 10.8295 3.45326 10.4218 3.20653C10.0142 2.95981 9.55656 2.78776 9.07504 2.70021C8.59353 2.61266 8.09757 2.61133 7.61549 2.69629C7.1334 2.78124 6.67463 2.95083 6.26536 3.19535C5.43881 3.6892 4.86409 4.45833 4.66764 5.33354C3.95694 5.30508 3.258 5.51381 2.69048 5.92401C2.12297 6.33421 1.72219 6.92036 1.55675 7.58209C1.39132 8.24383 1.47152 8.94 1.78364 9.5514C2.09575 10.1628 2.62036 10.6514 3.26764 10.9335M8.00097 8.00021V14.0002M8.00097 14.0002L6.00097 12.0002M8.00097 14.0002L10.001 12.0002" stroke="#ADDAAF" stroke-linecap="round" stroke-linejoin="round"/>
</svg>
