<svg width="24" height="24" viewBox="0 0 24 24" fill="none" xmlns="http://www.w3.org/2000/svg">
<path fill-rule="evenodd" clip-rule="evenodd" d="M16.53 14.0298C16.3893 14.1703 16.1987 14.2492 16 14.2492C15.8012 14.2492 15.6106 14.1703 15.47 14.0298L12 10.5598L8.52997 14.0298C8.38779 14.1623 8.19975 14.2344 8.00545 14.231C7.81115 14.2276 7.62576 14.1489 7.48835 14.0114C7.35093 13.874 7.27222 13.6887 7.26879 13.4944C7.26537 13.3 7.33749 13.112 7.46997 12.9698L11.47 8.96983C11.6106 8.82938 11.8012 8.75049 12 8.75049C12.1987 8.75049 12.3893 8.82938 12.53 8.96983L16.53 12.9698C16.6704 13.1105 16.7493 13.3011 16.7493 13.4998C16.7493 13.6986 16.6704 13.8892 16.53 14.0298Z" fill="black"/>
</svg>
