<svg width="18" height="18" viewBox="0 0 18 18" fill="none" xmlns="http://www.w3.org/2000/svg">
<path d="M10.5 3.49981L14.5 7.49981M1 16.9998H5L15.5 6.49981C15.7626 6.23717 15.971 5.92537 16.1131 5.58221C16.2553 5.23905 16.3284 4.87125 16.3284 4.49981C16.3284 4.12838 16.2553 3.76058 16.1131 3.41742C15.971 3.07426 15.7626 2.76246 15.5 2.49981C15.2374 2.23717 14.9256 2.02883 14.5824 1.88669C14.2392 1.74455 13.8714 1.67139 13.5 1.67139C13.1286 1.67139 12.7608 1.74455 12.4176 1.88669C12.0744 2.02883 11.7626 2.23717 11.5 2.49981L1 12.9998V16.9998Z" stroke="#091409" stroke-width="1.5" stroke-linecap="round" stroke-linejoin="round"/>
</svg>
