<svg width="49" height="48" viewBox="0 0 49 48" fill="none" xmlns="http://www.w3.org/2000/svg">
<path d="M10.5 10C10.5 9.46957 10.7107 8.96086 11.0858 8.58579C11.4609 8.21071 11.9696 8 12.5 8H36.5C37.0304 8 37.5391 8.21071 37.9142 8.58579C38.2893 8.96086 38.5 9.46957 38.5 10V38C38.5 38.5304 38.2893 39.0391 37.9142 39.4142C37.5391 39.7893 37.0304 40 36.5 40H12.5C11.9696 40 11.4609 39.7893 11.0858 39.4142C10.7107 39.0391 10.5 38.5304 10.5 38V10Z" stroke="#091409" stroke-width="2.5" stroke-linecap="round" stroke-linejoin="round"/>
<path d="M20.5 20L24.5 16L28.5 20M20.5 28L24.5 32L28.5 28" stroke="#091409" stroke-width="2.5" stroke-linecap="round" stroke-linejoin="round"/>
</svg>
