<svg width="16" height="16" viewBox="0 0 16 16" fill="none" xmlns="http://www.w3.org/2000/svg">
<path d="M8 0.5C12.1423 0.5 15.5 3.85775 15.5 8C15.5016 9.9691 14.7287 11.8598 13.3482 13.264C11.9677 14.6681 10.0904 15.473 8.12152 15.5049C6.15267 15.5369 4.25025 14.7932 2.825 13.4345C1.39974 12.0758 0.565991 10.2111 0.50375 8.243L0.5 8L0.503 7.79C0.614 3.74525 3.9275 0.5 8 0.5ZM8.0075 10.25L7.91225 10.2552C7.72996 10.2769 7.56196 10.3647 7.44006 10.502C7.31816 10.6392 7.25084 10.8164 7.25084 11C7.25084 11.1836 7.31816 11.3608 7.44006 11.498C7.56196 11.6353 7.72996 11.7231 7.91225 11.7448L8 11.75L8.09525 11.7448C8.27754 11.7231 8.44554 11.6353 8.56744 11.498C8.68934 11.3608 8.75666 11.1836 8.75666 11C8.75666 10.8164 8.68934 10.6392 8.56744 10.502C8.44554 10.3647 8.27754 10.2769 8.09525 10.2552L8.0075 10.25ZM8 4.25C7.8163 4.25002 7.639 4.31747 7.50172 4.43954C7.36445 4.56161 7.27674 4.72981 7.25525 4.91225L7.25 5V8L7.25525 8.08775C7.27693 8.27004 7.36472 8.43804 7.50197 8.55994C7.63923 8.68184 7.81643 8.74916 8 8.74916C8.18357 8.74916 8.36077 8.68184 8.49803 8.55994C8.63528 8.43804 8.72307 8.27004 8.74475 8.08775L8.75 8V5L8.74475 4.91225C8.72326 4.72981 8.63556 4.56161 8.49828 4.43954C8.361 4.31747 8.1837 4.25002 8 4.25Z" fill="#F58300"/>
</svg>
