<svg width="25" height="24" viewBox="0 0 25 24" fill="none" xmlns="http://www.w3.org/2000/svg">
<path d="M20.2503 12.5722L12.7503 20.0002L5.2503 12.5722C4.75561 12.0908 4.36594 11.5122 4.10585 10.8728C3.84575 10.2334 3.72086 9.54713 3.73904 8.85711C3.75721 8.16709 3.91806 7.48831 4.21146 6.86351C4.50485 6.23871 4.92444 5.68143 5.44379 5.22676C5.96314 4.77208 6.57101 4.42987 7.22911 4.22166C7.88722 4.01345 8.58131 3.94376 9.26767 4.01698C9.95403 4.0902 10.6178 4.30473 11.2172 4.64708C11.8166 4.98943 12.3385 5.45218 12.7503 6.00618C13.1638 5.4562 13.6864 4.9975 14.2854 4.65878C14.8844 4.32007 15.5468 4.10863 16.2312 4.0377C16.9157 3.96677 17.6074 4.03787 18.2631 4.24657C18.9188 4.45526 19.5243 4.79705 20.0419 5.25054C20.5594 5.70403 20.9777 6.25946 21.2707 6.88207C21.5637 7.50468 21.725 8.18106 21.7446 8.86889C21.7642 9.55671 21.6416 10.2412 21.3844 10.8794C21.1273 11.5177 20.7412 12.096 20.2503 12.5782" stroke="#626962" stroke-width="1.5" stroke-linecap="round" stroke-linejoin="round"/>
</svg>
