<svg width="14" height="14" viewBox="0 0 14 14" fill="none" xmlns="http://www.w3.org/2000/svg">
<path d="M4.07108 1.79313C4.58736 1.70517 5.11681 1.73418 5.62039 1.87805C6.12397 2.02191 6.58884 2.27696 6.98074 2.62438L7.00233 2.64363L7.02216 2.62613C7.39619 2.29789 7.83592 2.05318 8.31201 1.90833C8.7881 1.76348 9.28961 1.72182 9.78308 1.78613L9.92658 1.80713C10.5486 1.91453 11.13 2.18814 11.6092 2.59899C12.0884 3.00984 12.4476 3.54263 12.6487 4.14095C12.8498 4.73927 12.8853 5.38084 12.7516 5.99772C12.6178 6.6146 12.3198 7.18384 11.8889 7.64513L11.7839 7.75305L11.7559 7.77697L7.41008 12.0814C7.30979 12.1806 7.17692 12.2402 7.03609 12.249C6.89526 12.2578 6.75602 12.2152 6.64416 12.1292L6.58933 12.0814L2.21841 7.75188C1.75537 7.30135 1.42607 6.73145 1.26697 6.10529C1.10787 5.47913 1.12518 4.82116 1.317 4.20423C1.50881 3.58731 1.86763 3.03552 2.35372 2.60996C2.83981 2.1844 3.43421 1.90169 4.07108 1.79313Z" fill="#B0B3B0"/>
</svg>
