<svg width="25" height="24" viewBox="0 0 25 24" fill="none" xmlns="http://www.w3.org/2000/svg">
<path d="M16.7503 15C14.5403 16.333 10.9583 16.333 8.75027 15M19.7503 8.71001L14.4173 4.56201C13.9493 4.19792 13.3732 4.00024 12.7803 4.00024C12.1873 4.00024 11.6113 4.19792 11.1433 4.56201L5.80927 8.71001C5.48872 8.9593 5.22937 9.27854 5.05103 9.64336C4.87269 10.0082 4.78008 10.4089 4.78027 10.815V18.015C4.78027 18.5454 4.99099 19.0542 5.36606 19.4292C5.74113 19.8043 6.24984 20.015 6.78027 20.015H18.7803C19.3107 20.015 19.8194 19.8043 20.1945 19.4292C20.5696 19.0542 20.7803 18.5454 20.7803 18.015V10.815C20.7803 9.99201 20.4003 9.21501 19.7503 8.71001Z" stroke="#4DAF50" stroke-width="1.5" stroke-linecap="round" stroke-linejoin="round"/>
</svg>
