<svg width="25" height="24" viewBox="0 0 25 24" fill="none" xmlns="http://www.w3.org/2000/svg">
<path d="M20.25 11L11.25 2L2.25 11H4.25V18C4.25 18.5304 4.46071 19.0391 4.83579 19.4142C5.21086 19.7893 5.71957 20 6.25 20H10.95M8.25 20V14C8.25 13.4696 8.46071 12.9609 8.83579 12.5858C9.21086 12.2107 9.71957 12 10.25 12H12.25M19.45 19.2L21.25 21M14.25 17C14.25 17.7956 14.5661 18.5587 15.1287 19.1213C15.6913 19.6839 16.4544 20 17.25 20C18.0456 20 18.8087 19.6839 19.3713 19.1213C19.9339 18.5587 20.25 17.7956 20.25 17C20.25 16.2044 19.9339 15.4413 19.3713 14.8787C18.8087 14.3161 18.0456 14 17.25 14C16.4544 14 15.6913 14.3161 15.1287 14.8787C14.5661 15.4413 14.25 16.2044 14.25 17Z" stroke="#626962" stroke-width="1.5" stroke-linecap="round" stroke-linejoin="round"/>
</svg>
