<svg width="25" height="24" viewBox="0 0 25 24" fill="none" xmlns="http://www.w3.org/2000/svg">
<path d="M13.25 5H21.25M13.25 9H18.25M13.25 15H21.25M13.25 19H18.25M3.25 5C3.25 4.73478 3.35536 4.48043 3.54289 4.29289C3.73043 4.10536 3.98478 4 4.25 4H8.25C8.51522 4 8.76957 4.10536 8.95711 4.29289C9.14464 4.48043 9.25 4.73478 9.25 5V9C9.25 9.26522 9.14464 9.51957 8.95711 9.70711C8.76957 9.89464 8.51522 10 8.25 10H4.25C3.98478 10 3.73043 9.89464 3.54289 9.70711C3.35536 9.51957 3.25 9.26522 3.25 9V5ZM3.25 15C3.25 14.7348 3.35536 14.4804 3.54289 14.2929C3.73043 14.1054 3.98478 14 4.25 14H8.25C8.51522 14 8.76957 14.1054 8.95711 14.2929C9.14464 14.4804 9.25 14.7348 9.25 15V19C9.25 19.2652 9.14464 19.5196 8.95711 19.7071C8.76957 19.8946 8.51522 20 8.25 20H4.25C3.98478 20 3.73043 19.8946 3.54289 19.7071C3.35536 19.5196 3.25 19.2652 3.25 19V15Z" stroke="#626962" stroke-width="1.5" stroke-linecap="round" stroke-linejoin="round"/>
</svg>
