<svg width="16" height="20" viewBox="0 0 16 20" fill="none" xmlns="http://www.w3.org/2000/svg">
<path d="M4.00006 14L1.90906 17.486C1.81816 17.6377 1.76911 17.8108 1.76692 17.9876C1.76473 18.1645 1.80948 18.3387 1.89659 18.4926C1.98371 18.6465 2.11008 18.7746 2.26282 18.8637C2.41556 18.9528 2.58921 18.9999 2.76606 19H13.2341C13.4109 18.9999 13.5845 18.9528 13.7373 18.8637C13.89 18.7746 14.0164 18.6465 14.1035 18.4926C14.1906 18.3387 14.2354 18.1645 14.2332 17.9876C14.231 17.8108 14.182 17.6377 14.0911 17.486L12.0001 14M1 8C1 8.91925 1.18106 9.82951 1.53284 10.6788C1.88463 11.5281 2.40024 12.2997 3.05025 12.9497C3.70026 13.5998 4.47194 14.1154 5.32122 14.4672C6.17049 14.8189 7.08075 15 8 15C8.91925 15 9.82951 14.8189 10.6788 14.4672C11.5281 14.1154 12.2997 13.5998 12.9497 12.9497C13.5998 12.2997 14.1154 11.5281 14.4672 10.6788C14.8189 9.82951 15 8.91925 15 8C15 7.08075 14.8189 6.1705 14.4672 5.32122C14.1154 4.47194 13.5998 3.70026 12.9497 3.05025C12.2997 2.40024 11.5281 1.88463 10.6788 1.53284C9.82951 1.18106 8.91925 1 8 1C7.08075 1 6.17049 1.18106 5.32122 1.53284C4.47194 1.88463 3.70026 2.40024 3.05025 3.05025C2.40024 3.70026 1.88463 4.47194 1.53284 5.32122C1.18106 6.1705 1 7.08075 1 8ZM5.00006 8C5.00006 8.79565 5.31613 9.55871 5.87874 10.1213C6.44134 10.6839 7.20441 11 8.00006 11C8.79571 11 9.55877 10.6839 10.1214 10.1213C10.684 9.55871 11.0001 8.79565 11.0001 8C11.0001 7.20435 10.684 6.44129 10.1214 5.87868C9.55877 5.31607 8.79571 5 8.00006 5C7.20441 5 6.44134 5.31607 5.87874 5.87868C5.31613 6.44129 5.00006 7.20435 5.00006 8Z" stroke="#41A300" stroke-width="1.5" stroke-linecap="round" stroke-linejoin="round"/>
</svg>
