<svg width="32" height="32" viewBox="0 0 32 32" fill="none" xmlns="http://www.w3.org/2000/svg">
<path d="M25.9998 10.6667C27.8408 10.6667 29.3332 9.17428 29.3332 7.33333C29.3332 5.49238 27.8408 4 25.9998 4C24.1589 4 22.6665 5.49238 22.6665 7.33333C22.6665 9.17428 24.1589 10.6667 25.9998 10.6667Z" fill="#4DAF50"/>
<path d="M25.9998 10.6667C27.8408 10.6667 29.3332 9.17428 29.3332 7.33333C29.3332 5.49238 27.8408 4 25.9998 4C24.1589 4 22.6665 5.49238 22.6665 7.33333C22.6665 9.17428 24.1589 10.6667 25.9998 10.6667Z" fill="#E00000"/>
<path opacity="0.4" d="M27.6265 12.4135C28.4665 12.1468 29.3332 12.8002 29.3332 13.6935V20.6802C29.3332 25.3468 26.6665 27.3468 22.6665 27.3468H9.33317C5.33317 27.3468 2.6665 25.3468 2.6665 20.6802V11.3468C2.6665 6.68018 5.33317 4.68018 9.33317 4.68018H19.4798C20.3465 4.68018 20.9332 5.48019 20.7732 6.32019C20.6132 7.10686 20.6398 7.94685 20.8798 8.81352C21.3732 10.6002 22.8265 12.0268 24.6132 12.4935C25.6665 12.7602 26.6932 12.7068 27.6265 12.4135Z" fill="#4DAF50"/>
<path d="M15.9999 17.1602C14.8799 17.1602 13.7465 16.8135 12.8799 16.1069L8.70653 12.7735C8.27987 12.4269 8.19987 11.8002 8.54654 11.3735C8.8932 10.9469 9.51986 10.8669 9.94652 11.2135L14.1199 14.5469C15.1332 15.3602 16.8532 15.3602 17.8665 14.5469L19.4398 13.2935C19.8665 12.9469 20.5065 13.0135 20.8399 13.4535C21.1865 13.8802 21.1199 14.5202 20.6799 14.8535L19.1065 16.1069C18.2532 16.8135 17.1199 17.1602 15.9999 17.1602Z" fill="#4DAF50"/>
</svg>
