<svg width="25" height="24" viewBox="0 0 25 24" fill="none" xmlns="http://www.w3.org/2000/svg">
<path d="M4.25 12C4.25 12.2652 4.35536 12.5196 4.54289 12.7071C4.73043 12.8946 4.98478 13 5.25 13C5.51522 13 5.76957 12.8946 5.95711 12.7071C6.14464 12.5196 6.25 12.2652 6.25 12C6.25 11.7348 6.14464 11.4804 5.95711 11.2929C5.76957 11.1054 5.51522 11 5.25 11C4.98478 11 4.73043 11.1054 4.54289 11.2929C4.35536 11.4804 4.25 11.7348 4.25 12ZM11.25 12C11.25 12.2652 11.3554 12.5196 11.5429 12.7071C11.7304 12.8946 11.9848 13 12.25 13C12.5152 13 12.7696 12.8946 12.9571 12.7071C13.1446 12.5196 13.25 12.2652 13.25 12C13.25 11.7348 13.1446 11.4804 12.9571 11.2929C12.7696 11.1054 12.5152 11 12.25 11C11.9848 11 11.7304 11.1054 11.5429 11.2929C11.3554 11.4804 11.25 11.7348 11.25 12ZM18.25 12C18.25 12.2652 18.3554 12.5196 18.5429 12.7071C18.7304 12.8946 18.9848 13 19.25 13C19.5152 13 19.7696 12.8946 19.9571 12.7071C20.1446 12.5196 20.25 12.2652 20.25 12C20.25 11.7348 20.1446 11.4804 19.9571 11.2929C19.7696 11.1054 19.5152 11 19.25 11C18.9848 11 18.7304 11.1054 18.5429 11.2929C18.3554 11.4804 18.25 11.7348 18.25 12Z" stroke="#626962" stroke-width="2" stroke-linecap="round" stroke-linejoin="round"/>
</svg>
