<svg width="32" height="32" viewBox="0 0 32 32" fill="none" xmlns="http://www.w3.org/2000/svg">
<path d="M26.6667 8.99996C28.6917 8.99996 30.3333 7.35834 30.3333 5.33329C30.3333 3.30825 28.6917 1.66663 26.6667 1.66663C24.6416 1.66663 23 3.30825 23 5.33329C23 7.35834 24.6416 8.99996 26.6667 8.99996Z" fill="#E00000"/>
<path opacity="0.4" d="M26.6665 10.6666C23.7198 10.6666 21.3332 8.27996 21.3332 5.33329C21.3332 4.35996 21.6132 3.45329 22.0798 2.66663H9.33317C5.65317 2.66663 2.6665 5.63996 2.6665 9.30663V17.28V18.6133C2.6665 22.28 5.65317 25.2533 9.33317 25.2533H11.3332C11.6932 25.2533 12.1732 25.4933 12.3998 25.7866L14.3998 28.44C15.2798 29.6133 16.7198 29.6133 17.5998 28.44L19.5998 25.7866C19.8532 25.4533 20.2532 25.2533 20.6665 25.2533H22.6665C26.3465 25.2533 29.3332 22.28 29.3332 18.6133V9.91996C28.5465 10.3866 27.6398 10.6666 26.6665 10.6666Z" fill="#4DAF50"/>
<path d="M15.9998 16C15.2532 16 14.6665 15.4 14.6665 14.6667C14.6665 13.9334 15.2665 13.3334 15.9998 13.3334C16.7332 13.3334 17.3332 13.9334 17.3332 14.6667C17.3332 15.4 16.7465 16 15.9998 16Z" fill="#4DAF50"/>
<path d="M21.3333 16C20.5867 16 20 15.4 20 14.6667C20 13.9334 20.6 13.3334 21.3333 13.3334C22.0667 13.3334 22.6667 13.9334 22.6667 14.6667C22.6667 15.4 22.08 16 21.3333 16Z" fill="#4DAF50"/>
<path d="M10.6668 16C9.92016 16 9.3335 15.4 9.3335 14.6667C9.3335 13.9334 9.9335 13.3334 10.6668 13.3334C11.4002 13.3334 12.0002 13.9334 12.0002 14.6667C12.0002 15.4 11.4135 16 10.6668 16Z" fill="#4DAF50"/>
</svg>
