<svg width="49" height="48" viewBox="0 0 49 48" fill="none" xmlns="http://www.w3.org/2000/svg">
<path d="M16.5 26V34M32.5 10V11C32.5 12.0609 32.9214 13.0783 33.6716 13.8284C34.4217 14.5786 35.4391 15 36.5 15C37.5609 15 38.5783 15.4214 39.3284 16.1716C40.0786 16.9217 40.5 17.9391 40.5 19V20M6.5 6L42.5 42M34.5 26H40.5C41.0304 26 41.5391 26.2107 41.9142 26.5858C42.2893 26.9609 42.5 27.4696 42.5 28V32C42.5 32.56 42.27 33.066 41.9 33.428M34.5 34H8.5C7.96957 34 7.46086 33.7893 7.08579 33.4142C6.71071 33.0391 6.5 32.5304 6.5 32V28C6.5 27.4696 6.71071 26.9609 7.08579 26.5858C7.46086 26.2107 7.96957 26 8.5 26H26.5" stroke="#091409" stroke-width="2.5" stroke-linecap="round" stroke-linejoin="round"/>
</svg>
