<svg width="25" height="24" viewBox="0 0 25 24" fill="none" xmlns="http://www.w3.org/2000/svg">
<path d="M9.42188 14.3298C9.42188 15.6198 10.4119 16.6598 11.6419 16.6598H14.1519C15.2219 16.6598 16.0919 15.7498 16.0919 14.6298C16.0919 13.4098 15.5619 12.9798 14.7719 12.6998L10.7419 11.2998C9.95187 11.0198 9.42188 10.5898 9.42188 9.36984C9.42188 8.24984 10.2919 7.33984 11.3619 7.33984H13.8719C15.1019 7.33984 16.0919 8.37984 16.0919 9.66984M12.75 6V18M15.75 22H9.75C4.75 22 2.75 20 2.75 15V9C2.75 4 4.75 2 9.75 2H15.75C20.75 2 22.75 4 22.75 9V15C22.75 20 20.75 22 15.75 22Z" stroke="#626962" stroke-width="1.5" stroke-linecap="round" stroke-linejoin="round"/>
</svg>
