<svg width="17" height="16" viewBox="0 0 17 16" fill="none" xmlns="http://www.w3.org/2000/svg">
<path d="M1.66602 13.3333C1.81746 13.5443 2.018 13.7153 2.2503 13.8314C2.4826 13.9476 2.73968 14.0054 2.99935 14C3.25901 14.0054 3.5161 13.9476 3.7484 13.8314C3.9807 13.7153 4.18124 13.5443 4.33268 13.3333C4.48413 13.1223 4.68466 12.9514 4.91697 12.8352C5.14927 12.7191 5.40635 12.6612 5.66602 12.6667C5.92568 12.6612 6.18277 12.7191 6.41507 12.8352C6.64737 12.9514 6.8479 13.1223 6.99935 13.3333C7.1508 13.5443 7.35133 13.7153 7.58363 13.8314C7.81593 13.9476 8.07302 14.0054 8.33268 14C8.59235 14.0054 8.84943 13.9476 9.08173 13.8314C9.31403 13.7153 9.51457 13.5443 9.66602 13.3333C9.81746 13.1223 10.018 12.9514 10.2503 12.8352C10.4826 12.7191 10.7397 12.6612 10.9993 12.6667C11.259 12.6612 11.5161 12.7191 11.7484 12.8352C11.9807 12.9514 12.1812 13.1223 12.3327 13.3333C12.4841 13.5443 12.6847 13.7153 12.917 13.8314C13.1493 13.9476 13.4064 14.0054 13.666 14C13.9257 14.0054 14.1828 13.9476 14.4151 13.8314C14.6474 13.7153 14.8479 13.5443 14.9993 13.3333M1.66602 10.6667C1.81746 10.8777 2.018 11.0486 2.2503 11.1648C2.4826 11.2809 2.73968 11.3388 2.99935 11.3333C3.25901 11.3388 3.5161 11.2809 3.7484 11.1648C3.9807 11.0486 4.18124 10.8777 4.33268 10.6667C4.48413 10.4557 4.68466 10.2847 4.91697 10.1686C5.14927 10.0524 5.40635 9.99456 5.66602 10C5.92568 9.99456 6.18277 10.0524 6.41507 10.1686C6.64737 10.2847 6.8479 10.4557 6.99935 10.6667C7.1508 10.8777 7.35133 11.0486 7.58363 11.1648C7.81593 11.2809 8.07302 11.3388 8.33268 11.3333C8.59235 11.3388 8.84943 11.2809 9.08173 11.1648C9.31403 11.0486 9.51457 10.8777 9.66602 10.6667C9.81746 10.4557 10.018 10.2847 10.2503 10.1686C10.4826 10.0524 10.7397 9.99456 10.9993 10C11.259 9.99456 11.5161 10.0524 11.7484 10.1686C11.9807 10.2847 12.1812 10.4557 12.3327 10.6667C12.4841 10.8777 12.6847 11.0486 12.917 11.1648C13.1493 11.2809 13.4064 11.3388 13.666 11.3333C13.9257 11.3388 14.1828 11.2809 14.4151 11.1648C14.6474 11.0486 14.8479 10.8777 14.9993 10.6667M10.3327 8V3C10.3327 2.73478 10.438 2.48043 10.6256 2.29289C10.8131 2.10536 11.0675 2 11.3327 2C11.5979 2 11.8523 2.10536 12.0398 2.29289C12.2273 2.48043 12.3327 2.73478 12.3327 3M6.33268 8V3C6.33268 2.73478 6.22733 2.48043 6.03979 2.29289C5.85225 2.10536 5.5979 2 5.33268 2C5.06747 2 4.81311 2.10536 4.62558 2.29289C4.43804 2.48043 4.33268 2.73478 4.33268 3M10.3327 3.33333H6.33268M6.33268 6.66667H10.3327" stroke="#091409" stroke-linecap="round" stroke-linejoin="round"/>
</svg>
