<svg width="24" height="24" viewBox="0 0 24 24" fill="none" xmlns="http://www.w3.org/2000/svg">
<path d="M8.24325 8.33992L1.86325 9.26492L1.75025 9.28792C1.57919 9.33333 1.42325 9.42333 1.29835 9.54872C1.17344 9.67412 1.08406 9.83041 1.03932 10.0016C0.994575 10.1729 0.996081 10.3529 1.04368 10.5234C1.09128 10.6939 1.18327 10.8486 1.31025 10.9719L5.93225 15.4709L4.84225 21.8259L4.82925 21.9359C4.81878 22.1128 4.85552 22.2894 4.9357 22.4474C5.01589 22.6055 5.13664 22.7394 5.28559 22.8354C5.43454 22.9315 5.60634 22.9862 5.7834 22.994C5.96046 23.0018 6.13642 22.9625 6.29325 22.8799L11.9993 19.8799L17.6923 22.8799L17.7923 22.9259C17.9573 22.9909 18.1367 23.0109 18.312 22.9837C18.4873 22.9565 18.6522 22.8832 18.7898 22.7712C18.9275 22.6592 19.0328 22.5127 19.0951 22.3466C19.1574 22.1804 19.1743 22.0008 19.1443 21.8259L18.0533 15.4709L22.6773 10.9709L22.7553 10.8859C22.8667 10.7487 22.9397 10.5844 22.967 10.4097C22.9942 10.2351 22.9747 10.0563 22.9103 9.89165C22.846 9.72701 22.7392 9.58235 22.6007 9.47244C22.4623 9.36252 22.2972 9.29126 22.1223 9.26592L15.7423 8.33992L12.8903 2.55992C12.8077 2.39246 12.68 2.25144 12.5214 2.15283C12.3629 2.05422 12.1799 2.00195 11.9933 2.00195C11.8066 2.00195 11.6236 2.05422 11.4651 2.15283C11.3065 2.25144 11.1788 2.39246 11.0963 2.55992L8.24325 8.33992Z" fill="#FBBC04"/>
</svg>
