<svg width="49" height="48" viewBox="0 0 49 48" fill="none" xmlns="http://www.w3.org/2000/svg">
<path d="M12.5 22L20.5 18L27.5 24L24.5 28M6.5 33.5C7.12258 33.8096 7.80499 33.9802 8.5 34C9.27899 34.0163 10.0502 33.8428 10.7472 33.4943C11.4441 33.1459 12.0457 32.633 12.5 32C12.9543 31.367 13.5559 30.8541 14.2528 30.5057C14.9498 30.1572 15.721 29.9837 16.5 30C17.279 29.9837 18.0502 30.1572 18.7472 30.5057C19.4441 30.8541 20.0457 31.367 20.5 32C20.9543 32.633 21.5559 33.1459 22.2528 33.4943C22.9498 33.8428 23.721 34.0163 24.5 34C25.279 34.0163 26.0502 33.8428 26.7472 33.4943C27.4441 33.1459 28.0457 32.633 28.5 32C28.9543 31.367 29.5559 30.8541 30.2528 30.5057C30.9498 30.1572 31.721 29.9837 32.5 30C33.279 29.9837 34.0502 30.1572 34.7472 30.5057C35.4441 30.8541 36.0457 31.367 36.5 32C36.9543 32.633 37.5559 33.1459 38.2528 33.4943C38.9498 33.8428 39.721 34.0163 40.5 34C41.195 33.9802 41.8774 33.8096 42.5 33.5M30.5 18C30.5 18.5304 30.7107 19.0391 31.0858 19.4142C31.4609 19.7893 31.9696 20 32.5 20C33.0304 20 33.5391 19.7893 33.9142 19.4142C34.2893 19.0391 34.5 18.5304 34.5 18C34.5 17.4696 34.2893 16.9609 33.9142 16.5858C33.5391 16.2107 33.0304 16 32.5 16C31.9696 16 31.4609 16.2107 31.0858 16.5858C30.7107 16.9609 30.5 17.4696 30.5 18Z" stroke="#091409" stroke-width="2.5" stroke-linecap="round" stroke-linejoin="round"/>
</svg>
