<svg width="32" height="32" viewBox="0 0 32 32" fill="none" xmlns="http://www.w3.org/2000/svg">
<g id="Upload Icon">
<path id="Vector" d="M9.33327 22.667C7.66964 22.667 6.07415 22.0348 4.89779 20.9096C3.72142 19.7844 3.06055 18.2583 3.06055 16.667C3.06055 15.0757 3.72142 13.5495 4.89779 12.4243C6.07415 11.2991 7.66964 10.667 9.33327 10.667C9.72619 8.91654 10.8756 7.37828 12.5287 6.39059C13.3473 5.90153 14.2648 5.56236 15.229 5.39245C16.1931 5.22254 17.1851 5.22521 18.1481 5.4003C19.1111 5.5754 20.0264 5.91949 20.8417 6.41294C21.6569 6.90639 22.3562 7.53953 22.8996 8.27621C23.443 9.01288 23.8199 9.83867 24.0087 10.7064C24.1975 11.5742 24.1945 12.4669 23.9999 13.3336H25.3333C26.571 13.3336 27.7579 13.8253 28.6331 14.7005C29.5083 15.5756 29.9999 16.7626 29.9999 18.0003C29.9999 19.238 29.5083 20.425 28.6331 21.3001C27.7579 22.1753 26.571 22.667 25.3333 22.667H23.9999M12 18.667L16 14.667M16 14.667L20 18.667M16 14.667V26.667" stroke="#4DAF50" stroke-width="1.5" stroke-linecap="round" stroke-linejoin="round"/>
</g>
</svg>
