<svg width="24" height="24" viewBox="0 0 24 24" fill="none" xmlns="http://www.w3.org/2000/svg">
<path d="M11.9984 2L12.1164 2.007L12.1754 2.015L12.2364 2.028L12.3474 2.062C12.424 2.09026 12.4969 2.12788 12.5644 2.174L12.6684 2.256L12.9234 2.474C14.9407 4.14956 17.4902 5.0493 20.1124 5.011L20.4544 5.001C20.678 4.9908 20.8985 5.05591 21.0807 5.1859C21.2629 5.31589 21.3963 5.50326 21.4594 5.718C21.9508 7.38958 22.1011 9.14288 21.9016 10.8737C21.702 12.6046 21.1565 14.2776 20.2975 15.7935C19.4386 17.3093 18.2837 18.6371 16.9014 19.6978C15.5192 20.7585 13.9379 21.5305 12.2514 21.968C12.0868 22.0107 11.914 22.0107 11.7494 21.968C10.0628 21.5306 8.48135 20.7587 7.09902 19.698C5.71668 18.6374 4.56166 17.3096 3.70261 15.7938C2.84355 14.2779 2.29798 12.6048 2.09833 10.8739C1.89867 9.14301 2.049 7.38964 2.54038 5.718C2.60349 5.50326 2.73682 5.31589 2.91903 5.1859C3.10124 5.05591 3.32179 4.9908 3.54538 5.001C6.28285 5.12613 8.96845 4.22499 11.0764 2.474L11.3394 2.249L11.4354 2.174C11.5028 2.12788 11.5757 2.09026 11.6524 2.062L11.7644 2.028C11.8036 2.01853 11.8433 2.01152 11.8834 2.007L11.9984 2ZM15.7084 9.293C15.6155 9.20002 15.5052 9.12626 15.3838 9.07594C15.2624 9.02562 15.1323 8.99971 15.0009 8.99971C14.8695 8.99971 14.7393 9.02562 14.6179 9.07594C14.4965 9.12626 14.3863 9.20002 14.2934 9.293L11.0004 12.585L9.70738 11.293L9.61338 11.21C9.41239 11.0546 9.15978 10.9815 8.90686 11.0056C8.65393 11.0297 8.41966 11.1492 8.25163 11.3397C8.0836 11.5303 7.9944 11.7777 8.00215 12.0316C8.00991 12.2856 8.11403 12.527 8.29338 12.707L10.2934 14.707L10.3874 14.79C10.5798 14.9393 10.82 15.0132 11.0631 14.9979C11.3061 14.9826 11.5352 14.8792 11.7074 14.707L15.7074 10.707L15.7904 10.613C15.9396 10.4206 16.0136 10.1803 15.9983 9.93732C15.983 9.69429 15.8796 9.46519 15.7074 9.293H15.7084Z" fill="#41A300"/>
</svg>
