<svg width="16" height="16" viewBox="0 0 16 16" fill="none" xmlns="http://www.w3.org/2000/svg">
<path d="M2.89201 3.68669C6.29601 4.97469 9.69934 4.97469 13.1033 3.68669C13.2039 3.64974 13.3118 3.63755 13.418 3.65115C13.5243 3.66475 13.6256 3.70375 13.7136 3.76483C13.8016 3.82592 13.8735 3.9073 13.9234 4.00208C13.9732 4.09686 13.9995 4.20226 14 4.30935V11.6427C14 12.104 13.5387 12.4427 13.1067 12.284C9.70201 10.996 6.29734 10.996 2.89267 12.284C2.79234 12.3213 2.68445 12.3337 2.57826 12.3202C2.47208 12.3067 2.37076 12.2676 2.28299 12.2063C2.19523 12.145 2.12363 12.0633 2.07435 11.9683C2.02506 11.8733 1.99955 11.7677 2.00001 11.6607V4.30935C2.00066 4.20277 2.02686 4.09789 2.07641 4.00352C2.12596 3.90915 2.19742 3.82804 2.28479 3.76698C2.37216 3.70593 2.4729 3.66671 2.57855 3.65263C2.6842 3.63854 2.79169 3.64999 2.89201 3.68602V3.68669Z" stroke="#091409" stroke-width="1.5" stroke-linecap="round" stroke-linejoin="round"/>
<path d="M10 6H10.0067" stroke="#091409" stroke-width="1.5" stroke-linecap="round" stroke-linejoin="round"/>
<path d="M2 10.6666L5.33333 7.33322C5.952 6.73789 6.71467 6.73789 7.33333 7.33322L10.6667 10.6666M9.33333 9.33322L10 8.66655C10.6187 8.07122 11.3813 8.07122 12 8.66655L14 10.6666" stroke="#091409" stroke-width="1.5" stroke-linecap="round" stroke-linejoin="round"/>
</svg>
