<svg width="49" height="48" viewBox="0 0 49 48" fill="none" xmlns="http://www.w3.org/2000/svg">
<path d="M8.64423 40.5982C9.72455 41.5049 11.0898 42.0019 12.5002 42.0019C13.9106 42.0019 15.2759 41.5049 16.3562 40.5982C17.4362 39.6911 18.1623 38.4327 18.4073 37.0438C18.6524 35.6549 18.4006 34.2241 17.6962 33.0022L13.5062 26.5482C13.3972 26.381 13.2482 26.2437 13.0727 26.1487C12.8972 26.0537 12.7008 26.0039 12.5012 26.0039C12.3017 26.0039 12.1053 26.0537 11.9298 26.1487C11.7543 26.2437 11.6053 26.381 11.4962 26.5482L7.30023 33.0022C6.59647 34.2244 6.34526 35.6553 6.59063 37.0441C6.836 38.4329 7.56429 39.6911 8.64423 40.5982ZM32.6442 40.5982C33.7245 41.5049 35.0898 42.0019 36.5002 42.0019C37.9106 42.0019 39.2759 41.5049 40.3562 40.5982C41.4362 39.6911 42.1623 38.4327 42.4073 37.0438C42.6524 35.6549 42.4006 34.2241 41.6962 33.0022L37.5062 26.5482C37.3972 26.381 37.2482 26.2437 37.0727 26.1487C36.8972 26.0537 36.7008 26.0039 36.5012 26.0039C36.3017 26.0039 36.1053 26.0537 35.9298 26.1487C35.7543 26.2437 35.6053 26.381 35.4962 26.5482L31.3002 33.0022C30.5965 34.2244 30.3453 35.6553 30.5906 37.0441C30.836 38.4329 31.5623 39.6911 32.6422 40.5982H32.6442ZM20.6442 20.5982C21.7245 21.5049 23.0898 22.0019 24.5002 22.0019C25.9106 22.0019 27.2759 21.5049 28.3562 20.5982C29.4362 19.6911 30.1623 18.4327 30.4073 17.0438C30.6524 15.6549 30.4006 14.2241 29.6962 13.0022L25.5062 6.54818C25.3972 6.38105 25.2482 6.24375 25.0727 6.14871C24.8972 6.05368 24.7008 6.00391 24.5012 6.00391C24.3017 6.00391 24.1053 6.05368 23.9298 6.14871C23.7543 6.24375 23.6053 6.38105 23.4962 6.54818L19.3002 13.0022C18.5965 14.2244 18.3453 15.6553 18.5906 17.0441C18.836 18.4329 19.5643 19.6911 20.6442 20.5982Z" stroke="#091409" stroke-width="2.5" stroke-linecap="round" stroke-linejoin="round"/>
</svg>
