<svg width="49" height="48" viewBox="0 0 49 48" fill="none" xmlns="http://www.w3.org/2000/svg">
<path d="M6.5 32C6.5 34.6522 7.55357 37.1957 9.42893 39.0711C11.3043 40.9464 13.8478 42 16.5 42C19.1522 42 21.6957 40.9464 23.5711 39.0711C25.4464 37.1957 26.5 34.6522 26.5 32C26.5 29.3478 25.4464 26.8043 23.5711 24.9289C21.6957 23.0536 19.1522 22 16.5 22C13.8478 22 11.3043 23.0536 9.42893 24.9289C7.55357 26.8043 6.5 29.3478 6.5 32ZM34.5 38C34.5 39.0609 34.9214 40.0783 35.6716 40.8284C36.4217 41.5786 37.4391 42 38.5 42C39.5609 42 40.5783 41.5786 41.3284 40.8284C42.0786 40.0783 42.5 39.0609 42.5 38C42.5 36.9391 42.0786 35.9217 41.3284 35.1716C40.5783 34.4214 39.5609 34 38.5 34C37.4391 34 36.4217 34.4214 35.6716 35.1716C34.9214 35.9217 34.5 36.9391 34.5 38Z" stroke="#091409" stroke-width="2.5" stroke-linecap="round" stroke-linejoin="round"/>
<path d="M38.5 34C38.5 32.4087 37.8679 30.8826 36.7426 29.7574C35.6174 28.6321 34.0913 28 32.5 28H25.7M6.5 6H8.5C9.56087 6 10.5783 6.42143 11.3284 7.17157C12.0786 7.92172 12.5 8.93913 12.5 10V22M12.5 16H34.5M30.5 16V28" stroke="#091409" stroke-width="2.5" stroke-linecap="round" stroke-linejoin="round"/>
</svg>
